<?xml version="1.0" encoding="UTF-8"?>
<svg xmlns="http://www.w3.org/2000/svg" width="742" height="425" xmlns:xlink="http://www.w3.org/1999/xlink" viewBox="0 0 742 425">
  <defs>
    <linearGradient id="linear-gradient" x1="368.86" y1="-21.34" x2="368.86" y2="392.13" gradientTransform="matrix(1, 0, 0, 1, 0, 0)" gradientUnits="userSpaceOnUse">
      <stop offset="0" stop-color="#6c399e"/>
      <stop offset=".72" stop-color="#a756d6"/>
    </linearGradient>
    <linearGradient id="linear-gradient-2" x1="254.01" y1="263.21" x2="254.01" y2="271.34" gradientTransform="matrix(1, 0, 0, 1, 0, 0)" gradientUnits="userSpaceOnUse">
      <stop offset="0" stop-color="#6c399e"/>
      <stop offset="1" stop-color="#a045cd"/>
    </linearGradient>
  </defs>
  <g id="Layer_1" data-name="Layer 1">
    <rect x="-13.5" y="-3.79" width="764.72" height="433.23" style="fill: url(#linear-gradient);"/>
    <polygon points="589.55 233.03 736.38 177.73 533.75 139.95 407.88 190.53 589.55 233.03" style="fill: #5e287b;"/>
    <path d="M407.88,190.53s-3.43,4.27-5.98,10.67c0,0,180.9,49.06,189.43,49.06s146.93-56.19,146.93-56.19c0,0,2.39-12.07-1.88-16.34l-146.83,55.3-181.67-42.5Z" style="fill: #41195b;"/>
    <polygon points="751.22 56.65 751.22 138.43 595.6 112.12 668.12 49.75 751.22 56.65" style="fill: #5e287b;"/>
    <path d="M756.26,137.43v16.47c-56.91-10.54-186.26-35.89-186.26-35.89,2.09-6.53,25.6-5.89,25.6-5.89l160.66,25.31Z" style="fill: #41195b;"/>
    <polygon points="339.44 182 163.87 148.63 329.05 102.05 476.14 130.8 339.44 182" style="fill: #5e287b;"/>
    <path d="M163.87,148.63s-7.69,7.77-7.69,12.03c0,0,175.09,36.55,181.4,35.34,6.31-1.21,121-44.98,121-44.98l13.05-21.11-134.06,47.81-173.71-29.1Z" style="fill: #41195b;"/>
    <polygon points="528.76 99.56 351.56 76.34 509.06 36.77 662.29 40.59 528.76 99.56" style="fill: #5e287b;"/>
    <path d="M351.56,76.34s-7.23,8.2-6.98,12.45c0,0,176.9,26.43,183.13,24.86,6.23-1.57,118.22-51.85,118.22-51.85l11.82-21.83-131.09,55.43-175.1-19.07Z" style="fill: #41195b;"/>
    <path d="M423.9,29.34l9.18,7.06s-136.95,42.63-139.53,42.73c-2.58,.1-171.36-20.3-171.36-20.3,0,0,.66-6.07,4.47-7.18,3.81-1.11,160.7,12.39,160.7,12.39L423.9,29.34Z" style="fill: #41195b;"/>
    <polygon points="288.89 66.47 126.66 51.65 262.83 19.88 423.9 29.34 288.89 66.47" style="fill: #5e287b;"/>
    <line x1="238.74" y1="263.55" x2="269.29" y2="272.07" style="fill: url(#linear-gradient-2);"/>
    <polyline points="471.61 198.76 444.93 242.34 445.94 243.35 462.06 238.31 461.65 235.88 450.09 239.24 476.72 199.03 471.61 198.76" style="fill: #a045cd; opacity: .46;"/>
  </g>
  <g id="Layer_5" data-name="Layer 5">
    <polygon points="362.63 333.24 35.78 259.04 215.78 210.9 532.96 268.08 362.63 333.24" style="fill: #ecbb0a;"/>
    <path d="M700.76,7.15l-155.33,48.94-2.35-.95-180.45,278.1-14.66-3.34L520.78,50.46c1.35-2.18,3.48-3.76,5.96-4.41L691.02,2.82l9.74,4.33Z" style="fill: #41195b;"/>
    <path d="M362.63,333.24L535.45,53.12c.61-.99,1.58-1.72,2.71-2.02L700.12,7.33c1.11-.3,2,.93,1.38,1.89l-168.49,258.79s-.07,.08-.12,.1l-170.25,65.13Z" style="fill: #5e287b;"/>
    <polygon points="480.41 186.26 480.41 199.07 475.52 199.07 448.96 242.34 460.04 239.32 460.04 241.33 441.9 247.38 441.98 247.27 471.86 199.07 467.61 199.07 480.41 186.26" style="fill: #f3bd00;"/>
  </g>
  <g id="Layer_2" data-name="Layer 2">
    <polygon points="215.78 210.9 215.78 232.64 85.93 270.43 35.78 259.04 215.78 210.9"/>
    <polygon points="120 278.11 238.71 240.66 238.74 263.55 163.56 288.05 120 278.11"/>
    <polygon points="198.59 296.24 269.29 272.07 269.29 290.3 235.72 304.43 198.59 296.24"/>
    <polygon points="265.08 311.36 301.88 295.12 301.88 312.05 291.95 317.2 265.08 311.36"/>
    <path d="M541.63,71.25l27.41-2.39-8.78,13.42-6.41,2.75,6.66-10.47-5.94,1.53-6.13,9.68-5.55,1.35,6.41-10.21-6.37,.15-8.4,13.56-4.96,.05,12.06-19.41Z" style="fill: #f3bd00;"/>
    <path d="M545.83,93.87c0,.38-.16,.95-.47,1.74-.35,.85-.92,1.89-1.73,3.12-.88,1.35-1.94,2.67-3.16,3.93-1.25,1.31-2.62,2.54-4.1,3.66-1.48,1.13-3.03,2.13-4.64,3-1.59,.83-3.22,1.52-4.88,2.05l-12.4,2.05,4.26-6.94,11.16-1.02c2.12-.55,3.8-1.22,5-1.96,1.2-.74,2.18-1.68,2.88-2.78,.22-.33,.41-.67,.6-1.01,.18-.33,.33-.63,.45-.87l-16.24,1.5,3.09-4.81,20.2-1.65Z" style="fill: #f3bd00;"/>
    <path d="M541.48,117.11l-.75,2.76-7.86,2.13-3.62,5.49-6.03,1.34,3.89-5.88-7.7,.17c-1.2-.11-2.26-.06-3.19,.2-.93,.27-1.8,.99-2.62,2.22-.41,.61-.78,1.26-1.11,1.94-.35,.69-.61,1.34-.8,1.95l-4.86,.2c.28-.86,.65-1.78,1.1-2.77,.44-.98,1.09-2.1,1.93-3.37,1.03-1.54,2.02-2.7,2.98-3.48,.94-.74,1.88-1.24,2.84-1.49,.96-.25,1.96-.3,3.02-.19,1.08,.08,3.56-.27,4.82-.07l17.96-1.16Z" style="fill: #f3bd00;"/>
    <path d="M512.12,134.18c1.84-.14,3.41-.22,4.69-.23,1.33-.09,2.37-.09,3.12,.03,.75,.1,1.21,.33,1.33,.77,.11,.46-.11,1.09-.66,1.92-1.4,2.15-3.79,4.61-7.08,7.23-3.32,2.69-7.13,4.89-11.23,6.25-.38,.11-.8,.21-1.24,.3-.43,.08-.81,.15-1.13,.19l7.97-12.69c-1.26,.15-2.46,.59-3.65,1.39-1.22,.83-2.32,2.02-3.31,3.61-.67,1.07-1.25,2.15-1.74,3.25-.5,1.12-.84,2.05-1.01,2.78l-5.29,1.18c.09-.41,.26-.94,.51-1.59,.23-.64,.54-1.35,.89-2.11,.35-.75,.74-1.54,1.17-2.37,.42-.81,.87-1.58,1.34-2.34,1.15-1.84,2.33-3.28,3.56-4.36,1.18-1,2.39-1.71,3.63-2.16,1.23-.44,2.51-.69,3.86-.79,1.37-.14,2.79-.21,4.27-.23Zm-4.08,9.44c.58-.18,1.18-.42,1.81-.72,.63-.3,1.25-.66,1.84-1.07,.6-.41,1.16-.85,1.68-1.32,.51-.46,.95-.97,1.29-1.48,.31-.48,.45-.85,.41-1.09-.04-.25-.21-.42-.48-.51-.28-.1-.65-.14-1.11-.12-.46,.01-.94,.04-1.44,.09l-4,6.22Z" style="fill: #f3bd00;"/>
    <path d="M495.94,167.33c.49-.69,1.05-1.47,1.67-2.34,.61-.84,1.15-1.68,1.63-2.5,.21-.36,.44-.77,.65-1.23,.21-.44,.34-.76,.4-.95l-15.35,2.5,3.56-6.09,18.86-2.71c-.03,.43-.18,1.04-.46,1.83-.3,.86-.92,2.04-1.87,3.59-.18,.29-.42,.66-.72,1.12-.31,.46-.63,.95-.99,1.46-.35,.51-.72,1.04-1.11,1.6-.39,.55-.77,1.06-1.13,1.52l-5.14,2.21Z" style="fill: #f3bd00;"/>
    <polygon points="314.45 322.44 324.53 318.41 323.52 324.45 314.45 322.44"/>
  </g>
  <g id="Layer_6" data-name="Layer 6">
    <polygon points="756.76 244.86 338.08 438 762.8 435.28 756.76 244.86" style="fill: #5e287b;"/>
  </g>
  <g id="Layer_7" data-name="Layer 7">
    <polygon points="745.28 316.85 746.29 413.57 708.75 414.87 533.46 380.74 483.23 370.61 457.06 352.21 362.73 333.18 533.02 268 615.36 282.07 644.88 287.41 745.28 316.85" style="fill: #13071c; opacity: .6;"/>
  </g>
  <g id="Layer_8" data-name="Layer 8">
    <polyline points="457.45 360.83 748.7 232.35 748.7 250.36 338.08 438 284.67 438 457.45 360.83" style="fill: #41195b;"/>
  </g>
  <g id="path">
    <polygon points="147.6 188.4 -3.8 227.82 -3.8 173.68 147.6 188.4" style="fill: #5e287b;"/>
    <path d="M151.91,199.06L-3.8,240.66v-12.84l151.41-39.42s4.31,6.4,4.31,10.67Z" style="fill: #41195b;"/>
    <path d="M-3.56,188.95c.26-.29,.54-.58,.84-.86,.29-.28,.52-.48,.67-.6,1.37-1.13,3.08-1.97,5.23-2.57,2.15-.6,4.44-1.01,6.95-1.25l8.08,1.86c-2,.57-3.92,1.28-5.78,2.14-1.91,.88-3.52,1.79-4.84,2.76-.06,.04-.17,.13-.35,.26-.18,.13-.38,.29-.6,.47-.22,.18-.46,.37-.69,.56-.24,.19-.45,.37-.61,.54l-8.88-3.28Zm14.19,4.72c.37-.34,.77-.68,1.2-1.03,.43-.34,.75-.58,.97-.74,2.02-1.41,4.49-2.59,7.5-3.58,3.01-.98,6.14-1.76,9.46-2.37l9.5,1.23c-2.64,.85-5.2,1.85-7.73,3-2.58,1.17-4.75,2.34-6.54,3.51-.08,.05-.23,.15-.48,.31-.25,.16-.52,.35-.81,.56-.3,.22-.61,.44-.93,.67-.32,.23-.6,.44-.82,.63l-11.33-2.19Z"/>
    <polygon points="314.03 348.38 168.98 416.64 -3.8 378.71 -3.8 272.06 314.03 348.38" style="fill: #5e287b;"/>
    <path d="M322.56,356.91v4.27l-144.67,68.26h-22.78L-3.8,395.01v-16.3l172.78,37.93,145.05-68.26s8.53,4.27,8.53,8.53Z" style="fill: #41195b;"/>
    <polygon points="248.29 97.78 93.51 142.02 -3.8 126.88 -3.8 92.62 64.2 73.76 248.29 97.78" style="fill: #5e287b;"/>
    <path d="M248.29,97.78s10.28,3.16,10.28,7.42c0,0-159.51,47.95-165.08,49.57L-3.8,139.59v-12.71l97.31,15.14,154.78-44.24Z" style="fill: #41195b;"/>
    <polygon points="130.58 399.57 156.18 408.11 168.98 395.31 181.78 399.57 177.51 378.24 143.38 386.77 150.66 390.53 130.58 399.57"/>
  </g>
</svg>